G04 DipTrace 2.4.0.2*
%INSuperSimplePowerSupply.gbl*%
%MOIN*%
%ADD13C,0.025*%
%ADD14C,0.065*%
%ADD15R,0.0669X0.0669*%
%ADD16C,0.0669*%
%ADD17R,0.0591X0.0591*%
%ADD18C,0.0591*%
%ADD19C,0.1575*%
%ADD20R,0.0709X0.0709*%
%ADD21C,0.0709*%
%ADD22C,0.375*%
%ADD23R,0.0945X0.0945*%
%ADD24C,0.0945*%
%ADD25O,0.0394X0.0787*%
%FSLAX44Y44*%
G04*
G70*
G90*
G75*
G01*
%LNBottom*%
%LPD*%
X12750Y39750D2*
D13*
Y38875D1*
X14750Y35037D2*
X12750Y37038D1*
Y38875D1*
X9819Y28000D2*
X9000Y28819D1*
Y33000D1*
X7476D1*
X13250D1*
X14750Y34500D1*
Y35037D1*
X13875Y38875D2*
X14750Y39750D1*
X14896D1*
X16583D1*
Y39500D1*
X16500Y37250D2*
X16583Y37333D1*
Y39500D1*
X11750Y30825D2*
X11888Y30963D1*
X13250D1*
X14750D1*
X16250D2*
X14750D1*
X17750Y33750D2*
Y31250D1*
X17463Y30963D1*
X16250D1*
X20250Y33750D2*
Y31500D1*
X19713Y30963D1*
X16250D1*
X18750Y33750D2*
Y34500D1*
X19000Y34750D1*
Y35250D1*
Y38500D1*
X20000Y39500D1*
X21917D1*
X23250Y38167D1*
Y35037D1*
X24931Y33356D1*
Y28000D1*
X18250Y33750D2*
Y34500D1*
X18000Y34750D1*
Y35250D1*
X15500Y37250D2*
X16250Y36500D1*
Y35037D1*
X18000Y35250D2*
X17787Y35037D1*
X16250D1*
X10250Y30963D2*
X12181Y29031D1*
Y28000D1*
X4524Y33000D2*
X4500Y33024D1*
Y34750D1*
X5000Y35250D1*
X7750D1*
X8500Y36000D1*
Y37750D1*
X20750Y33750D2*
Y29750D1*
X22500Y28000D1*
X22569D1*
X20750Y33750D2*
Y34750D1*
X20500Y35000D1*
Y35250D1*
X21250Y37250D2*
X20500Y36500D1*
Y35250D1*
X13250Y35037D2*
X13112Y35175D1*
X11750D1*
X11612Y35037D1*
X10250D1*
X8500Y38750D2*
X9500Y39750D1*
X10604D1*
X11480Y38875D1*
X11750D1*
Y38874D1*
Y35175D1*
X21250Y33750D2*
Y34500D1*
X21500Y34750D1*
Y35250D1*
X20250Y37250D2*
Y37750D1*
X20500Y38000D1*
X21750D1*
Y36000D1*
X21500Y35750D1*
Y35250D1*
X21250Y33750D2*
Y31500D1*
X21787Y30963D1*
X23250D1*
X12398Y39876D2*
X13352D1*
X12398Y39628D2*
X13352D1*
X12496Y39379D2*
X13336D1*
X12496Y39130D2*
X13176D1*
X12496Y38882D2*
X13129D1*
X12496Y38633D2*
X13172D1*
X12496Y38384D2*
X13325D1*
X12398Y38135D2*
X13352D1*
X12398Y37887D2*
X14114D1*
X12398Y37638D2*
X14321D1*
X12398Y37389D2*
X14528D1*
X12398Y37141D2*
X14735D1*
X12398Y36892D2*
X14793D1*
X12398Y36643D2*
X14793D1*
X12398Y36395D2*
X15350D1*
X12398Y36146D2*
X15350D1*
X12398Y35897D2*
X15350D1*
X13636Y35649D2*
X15350D1*
X13886Y35400D2*
X15350D1*
X13976Y35151D2*
X15350D1*
X13972Y34903D2*
X15350D1*
X12398Y34654D2*
X12629D1*
X13871D2*
X15350D1*
X12355Y34405D2*
X12903D1*
X13597D2*
X15350D1*
X6900Y34156D2*
X15350D1*
X6900Y33908D2*
X15350D1*
X6900Y33659D2*
X15350D1*
X6900Y33410D2*
X15350D1*
X6900Y33162D2*
X15350D1*
X6900Y32913D2*
X15350D1*
X6900Y32664D2*
X15350D1*
X6900Y32416D2*
X15350D1*
X6900Y32167D2*
X15350D1*
X8898Y31918D2*
X15350D1*
X8898Y31670D2*
X10164D1*
X10339D2*
X13164D1*
X13339D2*
X14664D1*
X14839D2*
X15350D1*
X8898Y31421D2*
X9684D1*
X8898Y31172D2*
X9547D1*
X8898Y30924D2*
X9516D1*
X8898Y30675D2*
X9575D1*
X8898Y30426D2*
X9762D1*
X8898Y30177D2*
X10289D1*
X8898Y29929D2*
X10539D1*
X8898Y29680D2*
X10602D1*
X8898Y29431D2*
X10602D1*
X8898Y29183D2*
X10602D1*
X8898Y28934D2*
X10602D1*
X8898Y28685D2*
X10602D1*
X8898Y28437D2*
X10602D1*
X8898Y28188D2*
X10602D1*
X8898Y27939D2*
X10602D1*
X8898Y27691D2*
X10602D1*
X9011Y27442D2*
X10489D1*
X15254Y36570D2*
X14820D1*
Y37074D1*
X13943Y38123D1*
X13500Y38125D1*
X13395Y38186D1*
X13375Y38250D1*
Y38355D1*
X13256Y38507D1*
X13202Y38620D1*
X13168Y38740D1*
X13155Y38864D1*
X13164Y38988D1*
X13195Y39110D1*
X13245Y39224D1*
X13315Y39327D1*
X13377Y39392D1*
X13375Y40125D1*
X12375D1*
Y39598D1*
X12469Y39594D1*
Y38155D1*
X12372D1*
X12375Y37625D1*
Y35685D1*
X12957D1*
X13034Y35713D1*
X13155Y35741D1*
X13280Y35747D1*
X13404Y35730D1*
X13523Y35693D1*
X13633Y35635D1*
X13732Y35558D1*
X13816Y35466D1*
X13882Y35360D1*
X13929Y35244D1*
X13955Y35122D1*
X13960Y35037D1*
X13949Y34913D1*
X13916Y34793D1*
X13863Y34680D1*
X13791Y34578D1*
X13702Y34490D1*
X13599Y34419D1*
X13485Y34368D1*
X13364Y34337D1*
X13240Y34328D1*
X13116Y34340D1*
X12996Y34375D1*
X12884Y34429D1*
X12783Y34503D1*
X12696Y34593D1*
X12647Y34668D1*
X12374Y34665D1*
X12375Y34500D1*
X12314Y34395D1*
X12250Y34375D1*
X10504D1*
X10364Y34337D1*
X10240Y34328D1*
X10116Y34340D1*
X9992Y34376D1*
X6875Y34375D1*
Y32125D1*
X8750D1*
X8855Y32064D1*
X8875Y32000D1*
Y27551D1*
X9054Y27373D1*
X10449Y27375D1*
X10627Y27554D1*
X10625Y28750D1*
Y29863D1*
X10238Y30254D1*
X10116Y30266D1*
X9996Y30300D1*
X9884Y30355D1*
X9783Y30428D1*
X9696Y30518D1*
X9627Y30622D1*
X9577Y30737D1*
X9548Y30858D1*
X9540Y30983D1*
X9555Y31107D1*
X9591Y31226D1*
X9647Y31338D1*
X9722Y31437D1*
X9814Y31522D1*
X9919Y31590D1*
X10034Y31639D1*
X10155Y31666D1*
X10280Y31672D1*
X10404Y31656D1*
X10523Y31618D1*
X10637Y31558D1*
X10686Y31605D1*
X10750Y31625D1*
X12996D1*
X13155Y31666D1*
X13280Y31672D1*
X13404Y31656D1*
X13504Y31624D1*
X14496Y31625D1*
X14655Y31666D1*
X14780Y31672D1*
X14904Y31656D1*
X15004Y31624D1*
X15375Y31625D1*
Y36449D1*
X15254Y36569D1*
X3650Y33626D2*
X6352D1*
X3650Y33378D2*
X6352D1*
X3650Y33129D2*
X6352D1*
X3650Y32880D2*
X6352D1*
X3650Y32632D2*
X6352D1*
X3650Y32383D2*
X6352D1*
X3650Y32134D2*
X6352D1*
X3650Y31885D2*
X6414D1*
X3650Y31637D2*
X6661D1*
X3650Y31388D2*
X8352D1*
X3650Y31139D2*
X8352D1*
X3650Y30891D2*
X8352D1*
X3650Y30642D2*
X8352D1*
X3650Y30393D2*
X8352D1*
X3808Y30145D2*
X4512D1*
X5988D2*
X8352D1*
X6554Y29896D2*
X8352D1*
X11148D2*
X23352D1*
X6824Y29647D2*
X8352D1*
X11148D2*
X23352D1*
X7054Y29399D2*
X8352D1*
X11148D2*
X23352D1*
X7300Y29150D2*
X8352D1*
X11148D2*
X23352D1*
X7398Y28901D2*
X8352D1*
X11148D2*
X23352D1*
X7437Y28653D2*
X8352D1*
X11148D2*
X23352D1*
X7500Y28404D2*
X8352D1*
X11148D2*
X23352D1*
X7531Y28155D2*
X8352D1*
X11148D2*
X23352D1*
X7535Y27906D2*
X8352D1*
X11148D2*
X23352D1*
X7507Y27658D2*
X8352D1*
X11148D2*
X23352D1*
X7457Y27409D2*
X8391D1*
X11109D2*
X23352D1*
X7398Y27160D2*
X8637D1*
X10863D2*
X23352D1*
X7398Y26912D2*
X8887D1*
X10613D2*
X23352D1*
X7398Y26663D2*
X23352D1*
X7398Y26414D2*
X23352D1*
X7398Y26166D2*
X23352D1*
X10144Y26874D2*
X10034Y26848D1*
X9910Y26831D1*
X9786Y26828D1*
X9661Y26838D1*
X9497Y26874D1*
X8997Y26877D1*
X8912Y26912D1*
X8411Y27415D1*
X8375Y27500D1*
Y31449D1*
X8196Y31627D1*
X6750Y31625D1*
X6675Y31650D1*
X6411Y31915D1*
X6375Y32000D1*
Y33699D1*
X6196Y33877D1*
X4250Y33875D1*
X3801D1*
X3623Y33696D1*
X3625Y31750D1*
Y30301D1*
X3804Y30123D1*
X4480Y30125D1*
X4730Y30199D1*
X4976Y30243D1*
X5225Y30260D1*
X5475Y30249D1*
X5722Y30210D1*
X5963Y30145D1*
X6018Y30125D1*
X6253Y30123D1*
X6338Y30088D1*
X6720Y29717D1*
X6900Y29544D1*
X7045Y29381D1*
X7339Y29085D1*
X7375Y29000D1*
Y28770D1*
X7437Y28569D1*
X7487Y28324D1*
X7509Y28075D1*
X7507Y27875D1*
X7479Y27627D1*
X7424Y27383D1*
X7374Y27231D1*
X7375Y26125D1*
X23375D1*
Y30125D1*
X12488D1*
X12489Y30085D1*
X11259D1*
X11123Y29946D1*
X11125Y28000D1*
X11123Y27497D1*
X11088Y27412D1*
X10585Y26911D1*
X10500Y26875D1*
X10145D1*
X21400Y39876D2*
X26407D1*
X21400Y39628D2*
X26184D1*
X21400Y39379D2*
X26016D1*
X21400Y39130D2*
X25895D1*
X21400Y38882D2*
X25805D1*
X21570Y38633D2*
X25746D1*
X22109Y38384D2*
X25719D1*
X22316Y38135D2*
X25719D1*
X22566Y37887D2*
X25743D1*
X22832Y37638D2*
X25801D1*
X23062Y37389D2*
X25887D1*
X23148Y37141D2*
X26004D1*
X23148Y36892D2*
X26168D1*
X23148Y36643D2*
X26387D1*
X23148Y36395D2*
X26684D1*
X23148Y36146D2*
X27149D1*
X23148Y35897D2*
X27852D1*
X23101Y35649D2*
X27852D1*
X22898Y35400D2*
X27852D1*
X22898Y35151D2*
X27852D1*
X22898Y34903D2*
X27852D1*
X22898Y34654D2*
X27852D1*
X22898Y34405D2*
X27852D1*
X22898Y34156D2*
X27852D1*
X22898Y33908D2*
X27852D1*
X22898Y33659D2*
X27852D1*
X22898Y33410D2*
X27852D1*
X22898Y33162D2*
X27852D1*
X22898Y32913D2*
X27852D1*
X22898Y32664D2*
X27852D1*
X22898Y32416D2*
X27852D1*
X23035Y32167D2*
X27852D1*
X23285Y31918D2*
X27852D1*
X23531Y31670D2*
X27852D1*
X23816Y31421D2*
X27852D1*
X23953Y31172D2*
X27852D1*
X23984Y30924D2*
X27852D1*
X23925Y30675D2*
X27852D1*
X23898Y30426D2*
X27852D1*
X23898Y30177D2*
X27371D1*
X23898Y29929D2*
X26797D1*
X23898Y29680D2*
X26465D1*
X23898Y29431D2*
X26227D1*
X23898Y29183D2*
X26051D1*
X24019Y28934D2*
X25918D1*
X24148Y28685D2*
X25821D1*
X24148Y28437D2*
X25758D1*
X24148Y28188D2*
X25723D1*
X24148Y27939D2*
X25715D1*
X24148Y27691D2*
X25735D1*
X24148Y27442D2*
X25786D1*
X24257Y27193D2*
X25743D1*
X22593Y37834D2*
X22643Y37805D1*
X22738Y37724D1*
X22837Y37589D1*
X23089Y37335D1*
X23125Y37250D1*
X23123Y35747D1*
X23088Y35662D1*
X22873Y35446D1*
X22875Y33500D1*
Y32301D1*
X23592Y31584D1*
X23732Y31483D1*
X23816Y31391D1*
X23882Y31285D1*
X23929Y31169D1*
X23955Y31047D1*
X23960Y30963D1*
X23949Y30838D1*
X23916Y30718D1*
X23875Y30625D1*
Y29051D1*
X24089Y28835D1*
X24125Y28750D1*
Y27301D1*
X24304Y27123D1*
X25699Y27125D1*
X25855Y27287D1*
X25790Y27528D1*
X25751Y27775D1*
X25740Y28025D1*
X25757Y28274D1*
X25801Y28520D1*
X25872Y28760D1*
X25968Y28990D1*
X26090Y29208D1*
X26235Y29412D1*
X26402Y29598D1*
X26588Y29765D1*
X26792Y29910D1*
X27010Y30032D1*
X27240Y30128D1*
X27480Y30199D1*
X27726Y30243D1*
X27877Y30256D1*
X27875Y32500D1*
Y35996D1*
X27676Y36013D1*
X27431Y36063D1*
X27193Y36139D1*
X26965Y36241D1*
X26750Y36367D1*
X26549Y36517D1*
X26367Y36688D1*
X26204Y36878D1*
X26064Y37084D1*
X25947Y37305D1*
X25855Y37537D1*
X25790Y37778D1*
X25751Y38025D1*
X25740Y38275D1*
X25757Y38524D1*
X25801Y38770D1*
X25872Y39010D1*
X25968Y39240D1*
X26090Y39458D1*
X26235Y39662D1*
X26402Y39848D1*
X26588Y40015D1*
X26743Y40127D1*
X23250Y40125D1*
X21551D1*
X21373Y39946D1*
X21375Y38801D1*
X21554Y38623D1*
X21753D1*
X21838Y38588D1*
X21963Y38464D1*
X22092Y38378D1*
X22175Y38280D1*
X22210Y38220D1*
X22587Y37840D1*
X13900Y39876D2*
X17100D1*
X13900Y39628D2*
X17100D1*
X13900Y39379D2*
X17100D1*
X13900Y39130D2*
X17100D1*
X13900Y38882D2*
X17100D1*
X13900Y38633D2*
X17100D1*
X14316Y38384D2*
X17100D1*
X14566Y38135D2*
X17100D1*
X16207Y37887D2*
X17100D1*
X14945Y37930D2*
X16180D1*
Y37872D1*
X17000Y37875D1*
X17125D1*
Y40125D1*
X13875D1*
Y38625D1*
X14003Y38623D1*
X14088Y38588D1*
X14802Y37875D1*
X14820Y37930D1*
X14945D1*
D14*
X19000Y35250D3*
X18000D3*
X20500D3*
X21500D3*
X8500Y37750D3*
Y38750D3*
D15*
X7476Y33000D3*
D16*
X4524D3*
D17*
X15500Y37250D3*
D18*
X16500D3*
X17500D3*
D17*
X20250D3*
D18*
X21250D3*
X22250D3*
D19*
X24931Y28000D3*
X22569D3*
X9819D3*
X12181D3*
D20*
X11750Y30825D3*
D21*
Y35175D3*
D22*
X5250Y38250D3*
X28000D3*
X5250Y28000D3*
X28000D3*
D23*
X10604Y39750D3*
D24*
X12750D3*
X14896D3*
D15*
X11750Y38875D3*
D16*
X13875D3*
X12750D3*
G36*
X18947Y34045D2*
X18848Y34144D1*
X18652D1*
X18553Y34045D1*
Y33455D1*
X18652Y33356D1*
X18848D1*
X18947Y33455D1*
Y34045D1*
G37*
D25*
X18250Y33750D3*
X17750D3*
D14*
X13250Y30963D3*
Y35037D3*
X21917Y39500D3*
X16583D3*
X16250Y35037D3*
Y30963D3*
X14750D3*
Y35037D3*
X10250Y30963D3*
Y35037D3*
X23250Y30963D3*
Y35037D3*
G36*
X21447Y34045D2*
X21348Y34144D1*
X21152D1*
X21053Y34045D1*
Y33455D1*
X21152Y33356D1*
X21348D1*
X21447Y33455D1*
Y34045D1*
G37*
D25*
X20750Y33750D3*
X20250D3*
M02*
