M48
INCH
T01C0.0276
T02C0.0394
T03C0.0433
T04C0.0472
T05C0.0591
T06C0.1181
T07C0.15
%
T01
X+018750Y+033750
X+018250Y+033750
X+017750Y+033750
X+020250Y+033750
X+020750Y+033750
X+021250Y+033750
T02
X+019000Y+035250
X+018000Y+035250
X+016250Y+035037
X+014750Y+035037
X+013250Y+035037
X+010250Y+035037
X+008500Y+037750
X+008500Y+038750
X+011750Y+038875
X+012750Y+038875
X+013875Y+038875
X+015500Y+037250
X+016500Y+037250
X+017500Y+037250
X+016583Y+039500
X+020250Y+037250
X+021250Y+037250
X+022250Y+037250
X+021500Y+035250
X+020500Y+035250
X+023250Y+035037
X+023250Y+030963
X+016250Y+030963
X+014750Y+030963
X+013250Y+030963
X+010250Y+030963
X+021917Y+039500
T03
X+007476Y+033000
X+004524Y+033000
T04
X+011750Y+030825
X+011750Y+035175
T05
X+010604Y+039750
X+012750Y+039750
X+014896Y+039750
T06
X+024931Y+028000
X+022569Y+028000
X+012181Y+028000
X+009819Y+028000
T07
X+005250Y+038250
X+005250Y+028000
X+028000Y+028000
X+028000Y+038250
T00
M30
