G04 DipTrace 2.4.0.2*
%INSuperSimplePowerSupply.gto*%
%MOIN*%
%ADD10C,0.0098*%
%ADD55C,0.0046*%
%ADD56C,0.0062*%
%ADD57C,0.0093*%
%FSLAX44Y44*%
G04*
G70*
G90*
G75*
G01*
%LNTopSilk*%
%LPD*%
X19287Y35742D2*
D10*
X17713D1*
X19287Y34758D2*
X17713D1*
X19287Y34850D2*
Y34758D1*
Y35742D2*
Y35650D1*
X17713Y34850D2*
Y34758D1*
Y35742D2*
Y35650D1*
X20213Y34758D2*
X21787D1*
X20213Y35742D2*
X21787D1*
X20213Y35650D2*
Y35742D1*
Y34758D2*
Y34850D1*
X21787Y35650D2*
Y35742D1*
Y34758D2*
Y34850D1*
X8992Y37463D2*
Y39037D1*
X8008Y37463D2*
Y39037D1*
X8100Y37463D2*
X8008D1*
X8992D2*
X8900D1*
X8100Y39037D2*
X8008D1*
X8992D2*
X8900D1*
X2752Y33000D2*
G02X2752Y33000I3248J0D01*
G01*
X8734Y33118D2*
Y32882D1*
X8852Y33000D2*
X8616D1*
X15000Y38478D2*
X18000D1*
Y36022D1*
X15000D1*
Y38478D1*
Y38500D2*
X18000D1*
Y38000D1*
X15000D1*
Y38500D1*
X19750Y38478D2*
X22750D1*
Y36022D1*
X19750D1*
Y38478D1*
Y38500D2*
X22750D1*
Y38000D1*
X19750D1*
Y38500D1*
X26112Y26819D2*
X21388D1*
Y29181D1*
X26112D1*
Y26819D1*
X25750Y27250D2*
Y27500D1*
X25875Y27375D2*
X25625D1*
X21875D2*
X21500D1*
X25625Y28625D2*
X25875D1*
X25750Y28500D2*
Y28750D1*
X21875Y28625D2*
X21500D1*
X24125Y27500D2*
Y27250D1*
X24250Y27375D2*
X24000D1*
X24125Y28500D2*
Y28750D1*
X24250Y28625D2*
X24000D1*
X23250D2*
X23625D1*
Y27375D2*
X23250D1*
X8638Y29181D2*
X13362D1*
Y26819D1*
X8638D1*
Y29181D1*
X9000Y28750D2*
Y28500D1*
X8875Y28625D2*
X9125D1*
X12875D2*
X13250D1*
X9125Y27375D2*
X8875D1*
X9000Y27500D2*
Y27250D1*
X12875Y27375D2*
X13250D1*
X10625Y28500D2*
Y28750D1*
X10500Y28625D2*
X10750D1*
X10625Y27500D2*
Y27250D1*
X10500Y27375D2*
X10750D1*
X11500D2*
X11125D1*
Y28625D2*
X11500D1*
X12301Y32054D2*
X11199D1*
Y32074D2*
Y33926D1*
X12301Y32352D2*
X11199D1*
X12301Y33926D2*
X11199D1*
X12301Y32074D2*
Y33926D1*
X9677Y40852D2*
X15819D1*
Y38884D1*
X9677D1*
Y40852D1*
Y40380D2*
X15819D1*
X19006Y34281D2*
G02X17494Y34281I-756J-666D01*
G01*
X19006D1*
X12699Y31663D2*
Y34337D1*
X13801Y31663D2*
Y34337D1*
Y31663D2*
X12699D1*
X13801Y34337D2*
X12699D1*
X21219Y38713D2*
X17281D1*
X21219Y40287D2*
X17281D1*
X21219D2*
Y38713D1*
X17281Y40287D2*
Y38713D1*
X16801Y34337D2*
Y31663D1*
X15699Y34337D2*
Y31663D1*
Y34337D2*
X16801D1*
X15699Y31663D2*
X16801D1*
X14199D2*
Y34337D1*
X15301Y31663D2*
Y34337D1*
Y31663D2*
X14199D1*
X15301Y34337D2*
X14199D1*
X9699Y31663D2*
Y34337D1*
X10801Y31663D2*
Y34337D1*
Y31663D2*
X9699D1*
X10801Y34337D2*
X9699D1*
X22699Y31663D2*
Y34337D1*
X23801Y31663D2*
Y34337D1*
Y31663D2*
X22699D1*
X23801Y34337D2*
X22699D1*
X21506Y34281D2*
G02X19994Y34281I-756J-666D01*
G01*
X21506D1*
X18568Y36755D2*
D55*
X18553Y36783D1*
X18525Y36812D1*
X18496Y36826D1*
X18439D1*
X18410Y36812D1*
X18381Y36783D1*
X18367Y36755D1*
X18353Y36712D1*
Y36640D1*
X18367Y36597D1*
X18381Y36568D1*
X18410Y36540D1*
X18439Y36525D1*
X18496D1*
X18525Y36540D1*
X18553Y36568D1*
X18568Y36597D1*
X18660Y36769D2*
X18689Y36783D1*
X18732Y36826D1*
Y36525D1*
X18191Y36244D2*
X18220Y36259D1*
X18263Y36302D1*
Y36001D1*
X18441Y36302D2*
X18398Y36288D1*
X18370Y36244D1*
X18355Y36173D1*
Y36130D1*
X18370Y36058D1*
X18398Y36015D1*
X18441Y36001D1*
X18470D1*
X18513Y36015D1*
X18542Y36058D1*
X18556Y36130D1*
Y36173D1*
X18542Y36244D1*
X18513Y36288D1*
X18470Y36302D1*
X18441D1*
X18542Y36244D2*
X18370Y36058D1*
X18735Y36302D2*
X18692Y36288D1*
X18663Y36244D1*
X18649Y36173D1*
Y36130D1*
X18663Y36058D1*
X18692Y36015D1*
X18735Y36001D1*
X18764D1*
X18807Y36015D1*
X18835Y36058D1*
X18850Y36130D1*
Y36173D1*
X18835Y36244D1*
X18807Y36288D1*
X18764Y36302D1*
X18735D1*
X18835Y36244D2*
X18663Y36058D1*
X18942Y36202D2*
Y35900D1*
Y36159D2*
X18971Y36187D1*
X19000Y36202D1*
X19043D1*
X19072Y36187D1*
X19100Y36159D1*
X19115Y36115D1*
Y36087D1*
X19100Y36044D1*
X19072Y36015D1*
X19043Y36001D1*
X19000D1*
X18971Y36015D1*
X18942Y36044D1*
X19394Y36302D2*
X19208D1*
Y36001D1*
Y36159D2*
X19322D1*
X22378Y35755D2*
X22364Y35783D1*
X22335Y35812D1*
X22306Y35827D1*
X22249D1*
X22220Y35812D1*
X22192Y35783D1*
X22177Y35755D1*
X22163Y35712D1*
Y35640D1*
X22177Y35597D1*
X22192Y35568D1*
X22220Y35540D1*
X22249Y35525D1*
X22306D1*
X22335Y35540D1*
X22364Y35568D1*
X22378Y35597D1*
X22485Y35755D2*
Y35769D1*
X22500Y35798D1*
X22514Y35812D1*
X22543Y35826D1*
X22600D1*
X22629Y35812D1*
X22643Y35798D1*
X22657Y35769D1*
Y35740D1*
X22643Y35711D1*
X22614Y35669D1*
X22471Y35525D1*
X22672D1*
X21933Y35427D2*
X21889Y35413D1*
X21861Y35369D1*
X21846Y35298D1*
Y35255D1*
X21861Y35183D1*
X21889Y35140D1*
X21933Y35126D1*
X21961D1*
X22004Y35140D1*
X22033Y35183D1*
X22047Y35255D1*
Y35298D1*
X22033Y35369D1*
X22004Y35413D1*
X21961Y35427D1*
X21933D1*
X22033Y35369D2*
X21861Y35183D1*
X22154Y35155D2*
X22140Y35140D1*
X22154Y35126D1*
X22169Y35140D1*
X22154Y35155D1*
X22261Y35369D2*
X22290Y35384D1*
X22333Y35427D1*
Y35126D1*
X22426Y35327D2*
Y35183D1*
X22440Y35140D1*
X22469Y35126D1*
X22512D1*
X22541Y35140D1*
X22584Y35183D1*
Y35327D2*
Y35126D1*
X22863Y35427D2*
X22676D1*
Y35126D1*
Y35284D2*
X22791D1*
X7570Y37598D2*
X7541Y37584D1*
X7513Y37555D1*
X7498Y37526D1*
Y37469D1*
X7513Y37440D1*
X7541Y37412D1*
X7570Y37397D1*
X7613Y37383D1*
X7685D1*
X7728Y37397D1*
X7757Y37412D1*
X7785Y37440D1*
X7800Y37469D1*
Y37526D1*
X7785Y37555D1*
X7757Y37584D1*
X7728Y37598D1*
X7499Y37720D2*
Y37877D1*
X7613Y37791D1*
Y37834D1*
X7628Y37863D1*
X7642Y37877D1*
X7685Y37892D1*
X7714D1*
X7757Y37877D1*
X7785Y37849D1*
X7800Y37805D1*
Y37762D1*
X7785Y37720D1*
X7771Y37705D1*
X7742Y37691D1*
X7499Y38378D2*
X7513Y38335D1*
X7556Y38306D1*
X7628Y38292D1*
X7671D1*
X7742Y38306D1*
X7785Y38335D1*
X7800Y38378D1*
Y38407D1*
X7785Y38450D1*
X7742Y38478D1*
X7671Y38493D1*
X7628D1*
X7556Y38478D1*
X7513Y38450D1*
X7499Y38407D1*
Y38378D1*
X7556Y38478D2*
X7742Y38306D1*
X7771Y38600D2*
X7785Y38585D1*
X7800Y38600D1*
X7785Y38614D1*
X7771Y38600D1*
X7556Y38707D2*
X7541Y38736D1*
X7499Y38779D1*
X7800D1*
X7599Y38872D2*
X7742D1*
X7785Y38886D1*
X7800Y38915D1*
Y38958D1*
X7785Y38986D1*
X7742Y39029D1*
X7599D2*
X7800D1*
X7498Y39309D2*
Y39122D1*
X7800D1*
X7642D2*
Y39237D1*
X3954Y36366D2*
X3939Y36394D1*
X3911Y36423D1*
X3882Y36437D1*
X3825D1*
X3796Y36423D1*
X3767Y36394D1*
X3753Y36366D1*
X3738Y36323D1*
Y36251D1*
X3753Y36208D1*
X3767Y36179D1*
X3796Y36151D1*
X3825Y36136D1*
X3882D1*
X3911Y36151D1*
X3939Y36179D1*
X3954Y36208D1*
X4190Y36136D2*
Y36437D1*
X4046Y36236D1*
X4262D1*
X6821Y36657D2*
X6850Y36671D1*
X6893Y36714D1*
Y36413D1*
X7072Y36714D2*
X7029Y36700D1*
X7000Y36657D1*
X6986Y36585D1*
Y36542D1*
X7000Y36470D1*
X7029Y36427D1*
X7072Y36413D1*
X7101D1*
X7144Y36427D1*
X7172Y36470D1*
X7187Y36542D1*
Y36585D1*
X7172Y36657D1*
X7144Y36700D1*
X7101Y36714D1*
X7072D1*
X7172Y36657D2*
X7000Y36470D1*
X7366Y36714D2*
X7323Y36700D1*
X7294Y36657D1*
X7280Y36585D1*
Y36542D1*
X7294Y36470D1*
X7323Y36427D1*
X7366Y36413D1*
X7394D1*
X7437Y36427D1*
X7466Y36470D1*
X7481Y36542D1*
Y36585D1*
X7466Y36657D1*
X7437Y36700D1*
X7394Y36714D1*
X7366D1*
X7466Y36657D2*
X7294Y36470D1*
X7659Y36714D2*
X7616Y36700D1*
X7587Y36657D1*
X7573Y36585D1*
Y36542D1*
X7587Y36470D1*
X7616Y36427D1*
X7659Y36413D1*
X7688D1*
X7731Y36427D1*
X7760Y36470D1*
X7774Y36542D1*
Y36585D1*
X7760Y36657D1*
X7731Y36700D1*
X7688Y36714D1*
X7659D1*
X7760Y36657D2*
X7587Y36470D1*
X7867Y36614D2*
Y36470D1*
X7881Y36427D1*
X7910Y36413D1*
X7953D1*
X7981Y36427D1*
X8025Y36470D1*
Y36614D2*
Y36413D1*
X8304Y36714D2*
X8117D1*
Y36413D1*
Y36571D2*
X8232D1*
X15321Y35680D2*
X15306Y35709D1*
X15278Y35738D1*
X15249Y35752D1*
X15192D1*
X15163Y35738D1*
X15134Y35709D1*
X15120Y35680D1*
X15106Y35637D1*
Y35565D1*
X15120Y35522D1*
X15134Y35494D1*
X15163Y35465D1*
X15192Y35450D1*
X15249D1*
X15278Y35465D1*
X15306Y35494D1*
X15321Y35522D1*
X15500Y35752D2*
X15471Y35738D1*
X15442Y35709D1*
X15428Y35680D1*
X15413Y35637D1*
Y35565D1*
X15428Y35522D1*
X15442Y35494D1*
X15471Y35465D1*
X15500Y35450D1*
X15557D1*
X15585Y35465D1*
X15614Y35494D1*
X15629Y35522D1*
X15643Y35565D1*
Y35637D1*
X15629Y35680D1*
X15614Y35709D1*
X15585Y35738D1*
X15557Y35752D1*
X15500D1*
X15936D2*
Y35450D1*
X15735Y35752D1*
Y35450D1*
X16230Y35752D2*
Y35450D1*
X16029Y35752D1*
Y35450D1*
X16323Y35694D2*
X16352Y35709D1*
X16395Y35752D1*
Y35450D1*
X23319Y38368D2*
X23304Y38396D1*
X23276Y38425D1*
X23247Y38439D1*
X23190D1*
X23161Y38425D1*
X23132Y38396D1*
X23118Y38368D1*
X23104Y38325D1*
Y38253D1*
X23118Y38210D1*
X23132Y38181D1*
X23161Y38152D1*
X23190Y38138D1*
X23247D1*
X23276Y38152D1*
X23304Y38181D1*
X23319Y38210D1*
X23498Y38439D2*
X23469Y38425D1*
X23440Y38396D1*
X23426Y38368D1*
X23411Y38325D1*
Y38253D1*
X23426Y38210D1*
X23440Y38181D1*
X23469Y38152D1*
X23498Y38138D1*
X23555D1*
X23583Y38152D1*
X23612Y38181D1*
X23627Y38210D1*
X23641Y38253D1*
Y38325D1*
X23627Y38368D1*
X23612Y38396D1*
X23583Y38425D1*
X23555Y38439D1*
X23498D1*
X23934D2*
Y38138D1*
X23733Y38439D1*
Y38138D1*
X24228Y38439D2*
Y38138D1*
X24027Y38439D1*
Y38138D1*
X24335Y38367D2*
Y38382D1*
X24350Y38410D1*
X24364Y38425D1*
X24393Y38439D1*
X24450D1*
X24479Y38425D1*
X24493Y38410D1*
X24507Y38382D1*
Y38353D1*
X24493Y38324D1*
X24464Y38281D1*
X24321Y38138D1*
X24522D1*
X23256Y29549D2*
X23242Y29577D1*
X23213Y29606D1*
X23185Y29620D1*
X23127D1*
X23098Y29606D1*
X23070Y29577D1*
X23055Y29549D1*
X23041Y29506D1*
Y29434D1*
X23055Y29391D1*
X23070Y29362D1*
X23098Y29334D1*
X23127Y29319D1*
X23185D1*
X23213Y29334D1*
X23242Y29362D1*
X23256Y29391D1*
X23435Y29620D2*
X23406Y29606D1*
X23378Y29577D1*
X23363Y29549D1*
X23349Y29506D1*
Y29434D1*
X23363Y29391D1*
X23378Y29362D1*
X23406Y29334D1*
X23435Y29319D1*
X23492D1*
X23521Y29334D1*
X23550Y29362D1*
X23564Y29391D1*
X23578Y29434D1*
Y29506D1*
X23564Y29549D1*
X23550Y29577D1*
X23521Y29606D1*
X23492Y29620D1*
X23435D1*
X23872D2*
Y29319D1*
X23671Y29620D1*
Y29319D1*
X24165Y29620D2*
Y29319D1*
X23965Y29620D1*
Y29319D1*
X24315D2*
X24459Y29620D1*
X24258D1*
X8256Y29549D2*
X8242Y29577D1*
X8213Y29606D1*
X8185Y29620D1*
X8127D1*
X8098Y29606D1*
X8070Y29577D1*
X8055Y29549D1*
X8041Y29506D1*
Y29434D1*
X8055Y29391D1*
X8070Y29362D1*
X8098Y29334D1*
X8127Y29319D1*
X8185D1*
X8213Y29334D1*
X8242Y29362D1*
X8256Y29391D1*
X8435Y29620D2*
X8406Y29606D1*
X8378Y29577D1*
X8363Y29549D1*
X8349Y29506D1*
Y29434D1*
X8363Y29391D1*
X8378Y29362D1*
X8406Y29334D1*
X8435Y29319D1*
X8493D1*
X8521Y29334D1*
X8550Y29362D1*
X8564Y29391D1*
X8578Y29434D1*
Y29506D1*
X8564Y29549D1*
X8550Y29577D1*
X8521Y29606D1*
X8493Y29620D1*
X8435D1*
X8872D2*
Y29319D1*
X8671Y29620D1*
Y29319D1*
X9166Y29620D2*
Y29319D1*
X8965Y29620D1*
Y29319D1*
X9330Y29620D2*
X9287Y29606D1*
X9273Y29577D1*
Y29548D1*
X9287Y29520D1*
X9316Y29505D1*
X9373Y29491D1*
X9416Y29477D1*
X9445Y29448D1*
X9459Y29419D1*
Y29376D1*
X9445Y29348D1*
X9430Y29333D1*
X9387Y29319D1*
X9330D1*
X9287Y29333D1*
X9273Y29348D1*
X9258Y29376D1*
Y29419D1*
X9273Y29448D1*
X9301Y29477D1*
X9344Y29491D1*
X9402Y29505D1*
X9430Y29520D1*
X9445Y29548D1*
Y29577D1*
X9430Y29606D1*
X9387Y29620D1*
X9330D1*
X11686Y29472D2*
X11987D1*
Y29572D1*
X11973Y29615D1*
X11944Y29644D1*
X11915Y29658D1*
X11873Y29673D1*
X11801D1*
X11757Y29658D1*
X11729Y29644D1*
X11700Y29615D1*
X11686Y29572D1*
Y29472D1*
X11744Y29765D2*
X11729Y29794D1*
X11686Y29837D1*
X11987D1*
X12369Y29313D2*
X12354Y29342D1*
X12311Y29385D1*
X12612D1*
X12311Y29679D2*
X12612D1*
X12311Y29478D1*
X12612D1*
Y29915D2*
X12311D1*
X12512Y29772D1*
Y29987D1*
X12369Y30079D2*
X12354Y30108D1*
X12311Y30151D1*
X12612D1*
Y30388D2*
X12311D1*
X12512Y30244D1*
Y30459D1*
X12311Y30624D2*
X12325Y30581D1*
X12354Y30566D1*
X12383D1*
X12411Y30581D1*
X12426Y30609D1*
X12440Y30667D1*
X12454Y30710D1*
X12483Y30738D1*
X12512Y30753D1*
X12555D1*
X12583Y30738D1*
X12598Y30724D1*
X12612Y30681D1*
Y30624D1*
X12598Y30581D1*
X12583Y30566D1*
X12555Y30552D1*
X12512D1*
X12483Y30566D1*
X12454Y30595D1*
X12440Y30638D1*
X12426Y30695D1*
X12411Y30724D1*
X12383Y30738D1*
X12354D1*
X12325Y30724D1*
X12311Y30681D1*
Y30624D1*
X8887Y40104D2*
X8859Y40090D1*
X8830Y40061D1*
X8815Y40032D1*
X8801Y39989D1*
Y39918D1*
X8815Y39874D1*
X8830Y39846D1*
X8859Y39817D1*
X8887Y39803D1*
X8944D1*
X8973Y39817D1*
X9002Y39846D1*
X9016Y39874D1*
X9031Y39918D1*
Y39989D1*
X9016Y40032D1*
X9002Y40061D1*
X8973Y40090D1*
X8944Y40104D1*
X8887D1*
X8930Y39860D2*
X9016Y39774D1*
X9123Y40046D2*
X9152Y40061D1*
X9195Y40104D1*
Y39803D1*
X5801Y40563D2*
Y40262D1*
X5701Y40563D2*
X5902D1*
X6081D2*
X6052Y40549D1*
X6023Y40520D1*
X6009Y40492D1*
X5994Y40449D1*
Y40377D1*
X6009Y40334D1*
X6023Y40305D1*
X6052Y40277D1*
X6081Y40262D1*
X6138D1*
X6167Y40277D1*
X6195Y40305D1*
X6210Y40334D1*
X6224Y40377D1*
Y40449D1*
X6210Y40492D1*
X6195Y40520D1*
X6167Y40549D1*
X6138Y40563D1*
X6081D1*
X6317Y40413D2*
X6482D1*
X6590Y40491D2*
Y40506D1*
X6604Y40535D1*
X6618Y40549D1*
X6647Y40563D1*
X6704D1*
X6733Y40549D1*
X6747Y40535D1*
X6762Y40506D1*
Y40477D1*
X6747Y40448D1*
X6719Y40406D1*
X6575Y40262D1*
X6776D1*
X6883Y40491D2*
Y40506D1*
X6897Y40535D1*
X6912Y40549D1*
X6941Y40563D1*
X6998D1*
X7026Y40549D1*
X7041Y40535D1*
X7055Y40506D1*
Y40477D1*
X7041Y40448D1*
X7012Y40406D1*
X6869Y40262D1*
X7070D1*
X7248Y40563D2*
X7205Y40549D1*
X7176Y40506D1*
X7162Y40434D1*
Y40391D1*
X7176Y40319D1*
X7205Y40276D1*
X7248Y40262D1*
X7277D1*
X7320Y40276D1*
X7349Y40319D1*
X7363Y40391D1*
Y40434D1*
X7349Y40506D1*
X7320Y40549D1*
X7277Y40563D1*
X7248D1*
X7349Y40506D2*
X7176Y40319D1*
X7485Y40276D2*
X7470Y40262D1*
X7456Y40276D1*
X7470Y40291D1*
X7485Y40276D1*
Y40248D1*
X7470Y40219D1*
X7456Y40205D1*
X7969Y40563D2*
Y40262D1*
X7869Y40563D2*
X8070D1*
X8249D2*
X8220Y40549D1*
X8191Y40520D1*
X8177Y40492D1*
X8163Y40449D1*
Y40377D1*
X8177Y40334D1*
X8191Y40305D1*
X8220Y40277D1*
X8249Y40262D1*
X8306D1*
X8335Y40277D1*
X8363Y40305D1*
X8378Y40334D1*
X8392Y40377D1*
Y40449D1*
X8378Y40492D1*
X8363Y40520D1*
X8335Y40549D1*
X8306Y40563D1*
X8249D1*
X8485Y40413D2*
X8650D1*
X8758Y40491D2*
Y40506D1*
X8772Y40535D1*
X8786Y40549D1*
X8815Y40563D1*
X8872D1*
X8901Y40549D1*
X8915Y40535D1*
X8930Y40506D1*
Y40477D1*
X8915Y40448D1*
X8887Y40406D1*
X8743Y40262D1*
X8944D1*
X9180D2*
Y40563D1*
X9037Y40362D1*
X9252D1*
X9402Y40262D2*
X9545Y40563D1*
X9345D1*
X17904Y32391D2*
X17875Y32377D1*
X17846Y32349D1*
X17832Y32320D1*
X17817Y32277D1*
Y32205D1*
X17832Y32162D1*
X17846Y32133D1*
X17875Y32105D1*
X17904Y32090D1*
X17961D1*
X17990Y32105D1*
X18018Y32133D1*
X18033Y32162D1*
X18047Y32205D1*
Y32277D1*
X18033Y32320D1*
X18018Y32349D1*
X17990Y32377D1*
X17961Y32391D1*
X17904D1*
X17947Y32148D2*
X18033Y32061D1*
X18169Y32391D2*
X18326D1*
X18240Y32276D1*
X18284D1*
X18312Y32262D1*
X18326Y32248D1*
X18341Y32205D1*
Y32176D1*
X18326Y32133D1*
X18298Y32104D1*
X18255Y32090D1*
X18212D1*
X18169Y32104D1*
X18155Y32119D1*
X18140Y32147D1*
X17271Y31719D2*
X17400D1*
X17443Y31733D1*
X17458Y31748D1*
X17472Y31776D1*
Y31819D1*
X17458Y31848D1*
X17443Y31862D1*
X17400Y31877D1*
X17271D1*
Y31575D1*
X17766Y31877D2*
Y31575D1*
X17565Y31877D1*
Y31575D1*
X17873Y31805D2*
Y31819D1*
X17887Y31848D1*
X17901Y31862D1*
X17930Y31876D1*
X17988D1*
X18016Y31862D1*
X18030Y31848D1*
X18045Y31819D1*
Y31790D1*
X18030Y31762D1*
X18002Y31719D1*
X17858Y31575D1*
X18059D1*
X18166Y31805D2*
Y31819D1*
X18181Y31848D1*
X18195Y31862D1*
X18224Y31876D1*
X18281D1*
X18310Y31862D1*
X18324Y31848D1*
X18339Y31819D1*
Y31790D1*
X18324Y31762D1*
X18295Y31719D1*
X18152Y31575D1*
X18353D1*
X18460Y31805D2*
Y31819D1*
X18474Y31848D1*
X18489Y31862D1*
X18517Y31876D1*
X18575D1*
X18603Y31862D1*
X18618Y31848D1*
X18632Y31819D1*
Y31790D1*
X18618Y31762D1*
X18589Y31719D1*
X18445Y31575D1*
X18646D1*
X18754Y31805D2*
Y31819D1*
X18768Y31848D1*
X18782Y31862D1*
X18811Y31876D1*
X18868D1*
X18897Y31862D1*
X18911Y31848D1*
X18926Y31819D1*
Y31790D1*
X18911Y31762D1*
X18883Y31719D1*
X18739Y31575D1*
X18940D1*
X19262D2*
X19147Y31877D1*
X19033Y31575D1*
X19076Y31676D2*
X19219D1*
X13142Y29679D2*
Y29808D1*
X13127Y29851D1*
X13113Y29866D1*
X13085Y29880D1*
X13056D1*
X13027Y29866D1*
X13013Y29851D1*
X12998Y29808D1*
Y29679D1*
X13300D1*
X13142Y29780D2*
X13300Y29880D1*
X13056Y29973D2*
X13041Y30002D1*
X12999Y30045D1*
X13300D1*
X13586Y29399D2*
X13571Y29427D1*
X13528Y29471D1*
X13829D1*
X13528Y29649D2*
X13543Y29606D1*
X13586Y29577D1*
X13657Y29563D1*
X13700D1*
X13772Y29577D1*
X13815Y29606D1*
X13829Y29649D1*
Y29678D1*
X13815Y29721D1*
X13772Y29750D1*
X13700Y29764D1*
X13657D1*
X13586Y29750D1*
X13543Y29721D1*
X13528Y29678D1*
Y29649D1*
X13586Y29750D2*
X13772Y29577D1*
X13528Y29857D2*
X13829D1*
X13528Y30058D2*
X13729Y29857D1*
X13657Y29928D2*
X13829Y30058D1*
X13528Y30237D2*
X13543Y30194D1*
X13586Y30165D1*
X13657Y30150D1*
X13700D1*
X13772Y30165D1*
X13815Y30194D1*
X13829Y30237D1*
Y30265D1*
X13815Y30308D1*
X13772Y30337D1*
X13700Y30351D1*
X13657D1*
X13586Y30337D1*
X13543Y30308D1*
X13528Y30265D1*
Y30237D1*
X13586Y30337D2*
X13772Y30165D1*
X22448Y40107D2*
X22577D1*
X22620Y40122D1*
X22635Y40136D1*
X22649Y40165D1*
Y40194D1*
X22635Y40222D1*
X22620Y40237D1*
X22577Y40251D1*
X22448D1*
Y39950D1*
X22549Y40107D2*
X22649Y39950D1*
X22771Y40251D2*
X22928D1*
X22842Y40136D1*
X22885D1*
X22914Y40122D1*
X22928Y40107D1*
X22943Y40064D1*
Y40036D1*
X22928Y39993D1*
X22900Y39964D1*
X22857Y39950D1*
X22813D1*
X22771Y39964D1*
X22756Y39978D1*
X22742Y40007D1*
X22594Y39627D2*
X22551Y39613D1*
X22522Y39569D1*
X22508Y39498D1*
Y39455D1*
X22522Y39383D1*
X22551Y39340D1*
X22594Y39326D1*
X22623D1*
X22666Y39340D1*
X22694Y39383D1*
X22709Y39455D1*
Y39498D1*
X22694Y39569D1*
X22666Y39613D1*
X22623Y39627D1*
X22594D1*
X22694Y39569D2*
X22522Y39383D1*
X22801Y39484D2*
X22930D1*
X22974Y39498D1*
X22988Y39512D1*
X23002Y39541D1*
Y39570D1*
X22988Y39598D1*
X22974Y39613D1*
X22930Y39627D1*
X22801D1*
Y39326D1*
X22902Y39484D2*
X23002Y39326D1*
X23181Y39627D2*
X23138Y39613D1*
X23109Y39569D1*
X23095Y39498D1*
Y39455D1*
X23109Y39383D1*
X23138Y39340D1*
X23181Y39326D1*
X23210D1*
X23253Y39340D1*
X23281Y39383D1*
X23296Y39455D1*
Y39498D1*
X23281Y39569D1*
X23253Y39613D1*
X23210Y39627D1*
X23181D1*
X23281Y39569D2*
X23109Y39383D1*
X23418Y39627D2*
X23575D1*
X23489Y39512D1*
X23532D1*
X23561Y39498D1*
X23575Y39484D1*
X23590Y39440D1*
Y39412D1*
X23575Y39369D1*
X23547Y39340D1*
X23503Y39326D1*
X23460D1*
X23418Y39340D1*
X23403Y39355D1*
X23389Y39383D1*
X23711Y39627D2*
X23869D1*
X23783Y39512D1*
X23826D1*
X23854Y39498D1*
X23869Y39484D1*
X23883Y39440D1*
Y39412D1*
X23869Y39369D1*
X23840Y39340D1*
X23797Y39326D1*
X23754D1*
X23711Y39340D1*
X23697Y39355D1*
X23682Y39383D1*
X16142Y29920D2*
Y30049D1*
X16127Y30092D1*
X16113Y30107D1*
X16084Y30121D1*
X16055D1*
X16027Y30107D1*
X16012Y30092D1*
X15998Y30049D1*
Y29920D1*
X16299D1*
X16142Y30021D2*
X16299Y30121D1*
Y30357D2*
X15998D1*
X16199Y30214D1*
Y30429D1*
X16493Y29349D2*
X16479Y29378D1*
X16436Y29421D1*
X16737D1*
X16436Y29600D2*
X16450Y29557D1*
X16493Y29528D1*
X16565Y29514D1*
X16608D1*
X16680Y29528D1*
X16723Y29557D1*
X16737Y29600D1*
Y29628D1*
X16723Y29672D1*
X16680Y29700D1*
X16608Y29715D1*
X16565D1*
X16493Y29700D1*
X16450Y29672D1*
X16436Y29628D1*
Y29600D1*
X16493Y29700D2*
X16680Y29528D1*
X16436Y29807D2*
X16737D1*
X16436Y30008D2*
X16637Y29807D1*
X16565Y29879D2*
X16737Y30008D1*
X16436Y30187D2*
X16450Y30144D1*
X16493Y30115D1*
X16565Y30101D1*
X16608D1*
X16680Y30115D1*
X16723Y30144D1*
X16737Y30187D1*
Y30216D1*
X16723Y30259D1*
X16680Y30287D1*
X16608Y30302D1*
X16565D1*
X16493Y30287D1*
X16450Y30259D1*
X16436Y30216D1*
Y30187D1*
X16493Y30287D2*
X16680Y30115D1*
X14579Y29615D2*
Y29744D1*
X14565Y29787D1*
X14550Y29801D1*
X14522Y29816D1*
X14493D1*
X14464Y29801D1*
X14450Y29787D1*
X14436Y29744D1*
Y29615D1*
X14737D1*
X14579Y29715D2*
X14737Y29816D1*
X14436Y30080D2*
Y29937D1*
X14565Y29923D1*
X14551Y29937D1*
X14536Y29980D1*
Y30023D1*
X14551Y30066D1*
X14579Y30095D1*
X14622Y30109D1*
X14651D1*
X14694Y30095D1*
X14723Y30066D1*
X14737Y30023D1*
Y29980D1*
X14723Y29937D1*
X14708Y29923D1*
X14680Y29908D1*
X15023Y29336D2*
X15008Y29365D1*
X14966Y29408D1*
X15267D1*
X14966Y29587D2*
X14980Y29544D1*
X15023Y29515D1*
X15095Y29501D1*
X15138D1*
X15209Y29515D1*
X15252Y29544D1*
X15267Y29587D1*
Y29615D1*
X15252Y29659D1*
X15209Y29687D1*
X15138Y29702D1*
X15095D1*
X15023Y29687D1*
X14980Y29659D1*
X14966Y29615D1*
Y29587D1*
X15023Y29687D2*
X15209Y29515D1*
X14965Y29794D2*
X15267D1*
X14965Y29995D2*
X15166Y29794D1*
X15094Y29866D2*
X15267Y29995D1*
X14966Y30174D2*
X14980Y30131D1*
X15023Y30102D1*
X15095Y30088D1*
X15138D1*
X15209Y30102D1*
X15252Y30131D1*
X15267Y30174D1*
Y30203D1*
X15252Y30246D1*
X15209Y30274D1*
X15138Y30289D1*
X15095D1*
X15023Y30274D1*
X14980Y30246D1*
X14966Y30203D1*
Y30174D1*
X15023Y30274D2*
X15209Y30102D1*
X9892Y29595D2*
Y29724D1*
X9877Y29767D1*
X9863Y29782D1*
X9834Y29796D1*
X9805D1*
X9777Y29782D1*
X9762Y29767D1*
X9748Y29724D1*
Y29595D1*
X10049D1*
X9892Y29696D2*
X10049Y29796D1*
X9806Y29889D2*
X9791Y29918D1*
X9748Y29961D1*
X10049D1*
X9820Y30068D2*
X9806D1*
X9777Y30082D1*
X9763Y30096D1*
X9748Y30125D1*
Y30183D1*
X9763Y30211D1*
X9777Y30225D1*
X9806Y30240D1*
X9834D1*
X9863Y30225D1*
X9906Y30197D1*
X10049Y30053D1*
Y30254D1*
X10306Y29599D2*
X10291Y29628D1*
X10248Y29671D1*
X10550D1*
X10248Y29850D2*
X10263Y29807D1*
X10306Y29778D1*
X10377Y29764D1*
X10421D1*
X10492Y29778D1*
X10535Y29807D1*
X10550Y29850D1*
Y29878D1*
X10535Y29922D1*
X10492Y29950D1*
X10421Y29965D1*
X10377D1*
X10306Y29950D1*
X10263Y29922D1*
X10248Y29878D1*
Y29850D1*
X10306Y29950D2*
X10492Y29778D1*
X10248Y30057D2*
X10550D1*
X10248Y30258D2*
X10449Y30057D1*
X10377Y30129D2*
X10550Y30258D1*
X10248Y30437D2*
X10263Y30394D1*
X10306Y30365D1*
X10377Y30351D1*
X10421D1*
X10492Y30365D1*
X10535Y30394D1*
X10550Y30437D1*
Y30466D1*
X10535Y30509D1*
X10492Y30537D1*
X10421Y30552D1*
X10377D1*
X10306Y30537D1*
X10263Y30509D1*
X10248Y30466D1*
Y30437D1*
X10306Y30537D2*
X10492Y30365D1*
X24079Y31970D2*
Y32099D1*
X24065Y32142D1*
X24050Y32157D1*
X24022Y32171D1*
X23993D1*
X23964Y32157D1*
X23950Y32142D1*
X23936Y32099D1*
Y31970D1*
X24237D1*
X24079Y32070D2*
X24237Y32171D1*
X23993Y32264D2*
X23979Y32292D1*
X23936Y32335D1*
X24237D1*
X23936Y32457D2*
Y32614D1*
X24051Y32529D1*
Y32572D1*
X24065Y32600D1*
X24079Y32614D1*
X24122Y32629D1*
X24151D1*
X24194Y32614D1*
X24223Y32586D1*
X24237Y32543D1*
Y32500D1*
X24223Y32457D1*
X24208Y32443D1*
X24180Y32428D1*
X24056Y33474D2*
X24041Y33503D1*
X23999Y33546D1*
X24300D1*
X23999Y33725D2*
X24013Y33682D1*
X24056Y33653D1*
X24128Y33638D1*
X24171D1*
X24242Y33653D1*
X24285Y33682D1*
X24300Y33725D1*
Y33753D1*
X24285Y33796D1*
X24242Y33825D1*
X24171Y33839D1*
X24128D1*
X24056Y33825D1*
X24013Y33796D1*
X23999Y33753D1*
Y33725D1*
X24056Y33825D2*
X24242Y33653D1*
X23998Y33932D2*
X24300D1*
X23998Y34133D2*
X24199Y33932D1*
X24127Y34004D2*
X24300Y34133D1*
X23999Y34312D2*
X24013Y34269D1*
X24056Y34240D1*
X24128Y34226D1*
X24171D1*
X24242Y34240D1*
X24285Y34269D1*
X24300Y34312D1*
Y34340D1*
X24285Y34384D1*
X24242Y34412D1*
X24171Y34427D1*
X24128D1*
X24056Y34412D1*
X24013Y34384D1*
X23999Y34340D1*
Y34312D1*
X24056Y34412D2*
X24242Y34240D1*
X20130Y32408D2*
Y32193D1*
X20144Y32150D1*
X20173Y32121D1*
X20216Y32107D1*
X20245D1*
X20288Y32121D1*
X20317Y32150D1*
X20331Y32193D1*
Y32408D1*
X20423Y32351D2*
X20452Y32365D1*
X20495Y32408D1*
Y32107D1*
X20172Y31944D2*
Y31643D1*
X20072Y31944D2*
X20273D1*
X20365D2*
Y31643D1*
X20538D1*
X20774D2*
Y31944D1*
X20630Y31743D1*
X20845D1*
X20967Y31944D2*
X21124D1*
X21038Y31829D1*
X21082D1*
X21110Y31815D1*
X21124Y31801D1*
X21139Y31757D1*
Y31729D1*
X21124Y31686D1*
X21096Y31657D1*
X21053Y31643D1*
X21010D1*
X20967Y31657D1*
X20953Y31672D1*
X20938Y31700D1*
X21232Y31886D2*
X21260Y31901D1*
X21304Y31944D1*
Y31643D1*
X10837Y37506D2*
D56*
X10818Y37544D1*
X10779Y37582D1*
X10741Y37601D1*
X10665D1*
X10626Y37582D1*
X10588Y37544D1*
X10569Y37506D1*
X10550Y37448D1*
Y37352D1*
X10569Y37295D1*
X10588Y37257D1*
X10626Y37219D1*
X10665Y37199D1*
X10741D1*
X10779Y37219D1*
X10818Y37257D1*
X10837Y37295D1*
X10960Y37467D2*
Y37276D1*
X10979Y37219D1*
X11018Y37199D1*
X11075D1*
X11113Y37219D1*
X11171Y37276D1*
Y37467D2*
Y37199D1*
X11294Y37467D2*
Y37199D1*
Y37352D2*
X11314Y37410D1*
X11352Y37448D1*
X11390Y37467D1*
X11448D1*
X11571D2*
Y37199D1*
Y37352D2*
X11591Y37410D1*
X11629Y37448D1*
X11667Y37467D1*
X11724D1*
X11848Y37352D2*
X12077D1*
Y37391D1*
X12058Y37429D1*
X12039Y37448D1*
X12001Y37467D1*
X11944D1*
X11905Y37448D1*
X11867Y37410D1*
X11848Y37352D1*
Y37314D1*
X11867Y37257D1*
X11905Y37219D1*
X11944Y37199D1*
X12001D1*
X12039Y37219D1*
X12077Y37257D1*
X12201Y37467D2*
Y37199D1*
Y37391D2*
X12258Y37448D1*
X12297Y37467D1*
X12354D1*
X12392Y37448D1*
X12411Y37391D1*
Y37199D1*
X12592Y37601D2*
Y37276D1*
X12611Y37219D1*
X12650Y37199D1*
X12688D1*
X12535Y37467D2*
X12669D1*
X13200Y37601D2*
Y37199D1*
X13430D1*
X13553Y37601D2*
X13572Y37582D1*
X13592Y37601D1*
X13572Y37621D1*
X13553Y37601D1*
X13572Y37467D2*
Y37199D1*
X13715Y37467D2*
Y37199D1*
Y37391D2*
X13773Y37448D1*
X13811Y37467D1*
X13868D1*
X13907Y37448D1*
X13926Y37391D1*
Y37199D1*
Y37391D2*
X13983Y37448D1*
X14022Y37467D1*
X14079D1*
X14117Y37448D1*
X14137Y37391D1*
Y37199D1*
X14260Y37601D2*
X14279Y37582D1*
X14299Y37601D1*
X14279Y37621D1*
X14260Y37601D1*
X14279Y37467D2*
Y37199D1*
X14480Y37601D2*
Y37276D1*
X14499Y37219D1*
X14537Y37199D1*
X14575D1*
X14422Y37467D2*
X14556D1*
X10513Y36638D2*
Y36351D1*
X10532Y36293D1*
X10571Y36255D1*
X10628Y36236D1*
X10666D1*
X10724Y36255D1*
X10762Y36293D1*
X10781Y36351D1*
Y36638D1*
X11115Y36446D2*
X11096Y36485D1*
X11039Y36504D1*
X10981D1*
X10924Y36485D1*
X10905Y36446D1*
X10924Y36408D1*
X10962Y36389D1*
X11058Y36370D1*
X11096Y36351D1*
X11115Y36312D1*
Y36293D1*
X11096Y36255D1*
X11039Y36236D1*
X10981D1*
X10924Y36255D1*
X10905Y36293D1*
X11239Y36389D2*
X11468D1*
Y36427D1*
X11449Y36466D1*
X11430Y36485D1*
X11392Y36504D1*
X11334D1*
X11296Y36485D1*
X11258Y36446D1*
X11239Y36389D1*
Y36351D1*
X11258Y36293D1*
X11296Y36255D1*
X11334Y36236D1*
X11392D1*
X11430Y36255D1*
X11468Y36293D1*
X11980Y36561D2*
X12019Y36580D1*
X12076Y36637D1*
Y36236D1*
X12315Y36637D2*
X12257Y36618D1*
X12219Y36561D1*
X12200Y36465D1*
Y36408D1*
X12219Y36312D1*
X12257Y36255D1*
X12315Y36236D1*
X12353D1*
X12410Y36255D1*
X12448Y36312D1*
X12468Y36408D1*
Y36465D1*
X12448Y36561D1*
X12410Y36618D1*
X12353Y36637D1*
X12315D1*
X12448Y36561D2*
X12219Y36312D1*
X12706Y36637D2*
X12649Y36618D1*
X12610Y36561D1*
X12591Y36465D1*
Y36408D1*
X12610Y36312D1*
X12649Y36255D1*
X12706Y36236D1*
X12744D1*
X12802Y36255D1*
X12840Y36312D1*
X12859Y36408D1*
Y36465D1*
X12840Y36561D1*
X12802Y36618D1*
X12744Y36637D1*
X12706D1*
X12840Y36561D2*
X12610Y36312D1*
X12983Y36638D2*
Y36236D1*
X13174Y36504D2*
X12983Y36312D1*
X13059Y36389D2*
X13193Y36236D1*
X13706Y36427D2*
X13878D1*
X13935Y36446D1*
X13955Y36466D1*
X13974Y36504D1*
Y36561D1*
X13955Y36599D1*
X13935Y36619D1*
X13878Y36638D1*
X13706D1*
Y36236D1*
X14193Y36504D2*
X14155Y36485D1*
X14116Y36446D1*
X14097Y36389D1*
Y36351D1*
X14116Y36293D1*
X14155Y36255D1*
X14193Y36236D1*
X14250D1*
X14289Y36255D1*
X14327Y36293D1*
X14346Y36351D1*
Y36389D1*
X14327Y36446D1*
X14289Y36485D1*
X14250Y36504D1*
X14193D1*
X14527Y36638D2*
Y36312D1*
X14546Y36255D1*
X14584Y36236D1*
X14623D1*
X14470Y36504D2*
X14603D1*
X23141Y36212D2*
X23294Y35810D1*
X23447Y36212D1*
X23666Y36078D2*
X23628Y36059D1*
X23590Y36021D1*
X23571Y35963D1*
Y35925D1*
X23590Y35868D1*
X23628Y35830D1*
X23666Y35810D1*
X23724D1*
X23762Y35830D1*
X23800Y35868D1*
X23820Y35925D1*
Y35963D1*
X23800Y36021D1*
X23762Y36059D1*
X23724Y36078D1*
X23666D1*
X23943Y36212D2*
Y35810D1*
X24124Y36212D2*
Y35887D1*
X24143Y35830D1*
X24182Y35810D1*
X24220D1*
X24067Y36078D2*
X24201D1*
X24573D2*
Y35810D1*
Y36021D2*
X24535Y36059D1*
X24496Y36078D1*
X24439D1*
X24401Y36059D1*
X24363Y36021D1*
X24343Y35963D1*
Y35925D1*
X24363Y35868D1*
X24401Y35830D1*
X24439Y35810D1*
X24496D1*
X24535Y35830D1*
X24573Y35868D1*
X24926Y36059D2*
Y35753D1*
X24907Y35696D1*
X24888Y35676D1*
X24849Y35657D1*
X24792D1*
X24754Y35676D1*
X24926Y36002D2*
X24888Y36040D1*
X24849Y36059D1*
X24792D1*
X24754Y36040D1*
X24715Y36002D1*
X24696Y35944D1*
Y35906D1*
X24715Y35849D1*
X24754Y35810D1*
X24792Y35791D1*
X24849D1*
X24888Y35810D1*
X24926Y35849D1*
X25049Y35963D2*
X25279D1*
Y36002D1*
X25260Y36040D1*
X25241Y36059D1*
X25202Y36078D1*
X25145D1*
X25107Y36059D1*
X25068Y36021D1*
X25049Y35963D1*
Y35925D1*
X25068Y35868D1*
X25107Y35830D1*
X25145Y35810D1*
X25202D1*
X25241Y35830D1*
X25279Y35868D1*
X25791Y36212D2*
Y35810D1*
X26021D1*
X26144Y36212D2*
X26163Y36193D1*
X26183Y36212D1*
X26163Y36232D1*
X26144Y36212D1*
X26163Y36078D2*
Y35810D1*
X26306Y36078D2*
Y35810D1*
Y36002D2*
X26364Y36059D1*
X26402Y36078D1*
X26459D1*
X26498Y36059D1*
X26517Y36002D1*
Y35810D1*
Y36002D2*
X26574Y36059D1*
X26613Y36078D1*
X26670D1*
X26708Y36059D1*
X26728Y36002D1*
Y35810D1*
X26851Y36212D2*
X26870Y36193D1*
X26890Y36212D1*
X26870Y36232D1*
X26851Y36212D1*
X26870Y36078D2*
Y35810D1*
X27071Y36212D2*
Y35887D1*
X27090Y35830D1*
X27128Y35810D1*
X27166D1*
X27013Y36078D2*
X27147D1*
X24014Y35465D2*
Y35178D1*
X24033Y35120D1*
X24072Y35082D1*
X24129Y35063D1*
X24167D1*
X24225Y35082D1*
X24263Y35120D1*
X24282Y35178D1*
Y35465D1*
X24616Y35273D2*
X24597Y35312D1*
X24540Y35331D1*
X24482D1*
X24425Y35312D1*
X24406Y35273D1*
X24425Y35235D1*
X24463Y35216D1*
X24559Y35197D1*
X24597Y35178D1*
X24616Y35139D1*
Y35120D1*
X24597Y35082D1*
X24540Y35063D1*
X24482D1*
X24425Y35082D1*
X24406Y35120D1*
X24740Y35216D2*
X24969D1*
Y35254D1*
X24950Y35293D1*
X24931Y35312D1*
X24893Y35331D1*
X24835D1*
X24797Y35312D1*
X24759Y35273D1*
X24740Y35216D1*
Y35178D1*
X24759Y35120D1*
X24797Y35082D1*
X24835Y35063D1*
X24893D1*
X24931Y35082D1*
X24969Y35120D1*
X25481Y35388D2*
X25520Y35407D1*
X25577Y35464D1*
Y35063D1*
X25816Y35464D2*
X25758Y35445D1*
X25720Y35388D1*
X25701Y35292D1*
Y35235D1*
X25720Y35139D1*
X25758Y35082D1*
X25816Y35063D1*
X25854D1*
X25911Y35082D1*
X25949Y35139D1*
X25969Y35235D1*
Y35292D1*
X25949Y35388D1*
X25911Y35445D1*
X25854Y35464D1*
X25816D1*
X25949Y35388D2*
X25720Y35139D1*
X26207Y35464D2*
X26150Y35445D1*
X26111Y35388D1*
X26092Y35292D1*
Y35235D1*
X26111Y35139D1*
X26150Y35082D1*
X26207Y35063D1*
X26245D1*
X26303Y35082D1*
X26341Y35139D1*
X26360Y35235D1*
Y35292D1*
X26341Y35388D1*
X26303Y35445D1*
X26245Y35464D1*
X26207D1*
X26341Y35388D2*
X26111Y35139D1*
X26484Y35465D2*
Y35063D1*
X26675Y35331D2*
X26484Y35139D1*
X26560Y35216D2*
X26694Y35063D1*
X27207Y35254D2*
X27379D1*
X27436Y35273D1*
X27456Y35293D1*
X27475Y35331D1*
Y35388D1*
X27456Y35426D1*
X27436Y35446D1*
X27379Y35465D1*
X27207D1*
Y35063D1*
X27694Y35331D2*
X27656Y35312D1*
X27617Y35273D1*
X27598Y35216D1*
Y35178D1*
X27617Y35120D1*
X27656Y35082D1*
X27694Y35063D1*
X27751D1*
X27789Y35082D1*
X27828Y35120D1*
X27847Y35178D1*
Y35216D1*
X27828Y35273D1*
X27789Y35312D1*
X27751Y35331D1*
X27694D1*
X28028Y35465D2*
Y35139D1*
X28047Y35082D1*
X28085Y35063D1*
X28123D1*
X27970Y35331D2*
X28104D1*
X18364Y29096D2*
D57*
X18306Y29067D1*
X18249Y29009D1*
X18220Y28952D1*
X18191Y28866D1*
Y28722D1*
X18220Y28637D1*
X18249Y28579D1*
X18306Y28522D1*
X18364Y28493D1*
X18478D1*
X18535Y28522D1*
X18593Y28579D1*
X18622Y28637D1*
X18650Y28722D1*
Y28866D1*
X18622Y28952D1*
X18593Y29009D1*
X18535Y29067D1*
X18478Y29096D1*
X18364D1*
X18835Y28895D2*
Y28607D1*
X18864Y28522D1*
X18922Y28493D1*
X19008D1*
X19065Y28522D1*
X19151Y28607D1*
Y28895D2*
Y28493D1*
X19423Y29096D2*
Y28607D1*
X19451Y28522D1*
X19509Y28493D1*
X19566D1*
X19336Y28895D2*
X19537D1*
X19751D2*
Y28292D1*
Y28808D2*
X19809Y28865D1*
X19866Y28895D1*
X19952D1*
X20010Y28865D1*
X20067Y28808D1*
X20096Y28722D1*
Y28665D1*
X20067Y28579D1*
X20010Y28521D1*
X19952Y28493D1*
X19866D1*
X19809Y28521D1*
X19751Y28579D1*
X20281Y28895D2*
Y28607D1*
X20310Y28522D1*
X20367Y28493D1*
X20454D1*
X20511Y28522D1*
X20597Y28607D1*
Y28895D2*
Y28493D1*
X20868Y29096D2*
Y28607D1*
X20897Y28522D1*
X20955Y28493D1*
X21012D1*
X20782Y28895D2*
X20983D1*
X13688Y28971D2*
Y28368D1*
X13873Y28770D2*
Y28368D1*
Y28655D2*
X13960Y28741D1*
X14017Y28770D1*
X14103D1*
X14160Y28741D1*
X14189Y28655D1*
Y28368D1*
X14374Y28770D2*
Y28167D1*
Y28684D2*
X14432Y28741D1*
X14489Y28770D1*
X14575D1*
X14633Y28741D1*
X14690Y28684D1*
X14719Y28597D1*
Y28540D1*
X14690Y28454D1*
X14633Y28396D1*
X14575Y28368D1*
X14489D1*
X14432Y28396D1*
X14374Y28454D1*
X14904Y28770D2*
Y28483D1*
X14933Y28397D1*
X14991Y28368D1*
X15077D1*
X15134Y28397D1*
X15220Y28483D1*
Y28770D2*
Y28368D1*
X15492Y28971D2*
Y28483D1*
X15520Y28397D1*
X15578Y28368D1*
X15635D1*
X15405Y28770D2*
X15606D1*
X14032Y27658D2*
X13746D1*
X13717Y27400D1*
X13746Y27428D1*
X13832Y27458D1*
X13917D1*
X14004Y27428D1*
X14061Y27371D1*
X14090Y27285D1*
Y27228D1*
X14061Y27142D1*
X14004Y27084D1*
X13917Y27056D1*
X13832D1*
X13746Y27084D1*
X13717Y27113D1*
X13688Y27170D1*
X14448Y27658D2*
X14361Y27629D1*
X14304Y27543D1*
X14275Y27400D1*
Y27314D1*
X14304Y27170D1*
X14361Y27084D1*
X14448Y27056D1*
X14505D1*
X14591Y27084D1*
X14648Y27170D1*
X14677Y27314D1*
Y27400D1*
X14648Y27543D1*
X14591Y27629D1*
X14505Y27658D1*
X14448D1*
X14648Y27543D2*
X14304Y27170D1*
X14862Y27658D2*
X15092Y27056D1*
X15321Y27658D1*
X15507Y27458D2*
Y26855D1*
Y27371D2*
X15564Y27428D1*
X15621Y27458D1*
X15707D1*
X15765Y27428D1*
X15822Y27371D1*
X15851Y27285D1*
Y27227D1*
X15822Y27142D1*
X15765Y27084D1*
X15707Y27056D1*
X15621D1*
X15564Y27084D1*
X15507Y27142D1*
X16037Y27658D2*
Y27056D1*
X16324Y27458D2*
X16037Y27170D1*
X16151Y27285D2*
X16352Y27056D1*
X17580D2*
Y27658D1*
X17350Y27056D1*
X17121Y27658D1*
Y27056D1*
X18109Y27458D2*
Y27056D1*
Y27371D2*
X18052Y27429D1*
X17995Y27458D1*
X17909D1*
X17851Y27429D1*
X17794Y27371D1*
X17765Y27285D1*
Y27228D1*
X17794Y27142D1*
X17851Y27085D1*
X17909Y27056D1*
X17995D1*
X18052Y27085D1*
X18109Y27142D1*
X18295Y27458D2*
X18610Y27056D1*
Y27458D2*
X18295Y27056D1*
M02*
